<mxfile host="65bd71144e">
    <diagram id="DH0y3RfBeyM3ex1wEVPi" name="Page-1">
        <mxGraphModel dx="1104" dy="1104" grid="1" gridSize="10" guides="1" tooltips="1" connect="1" arrows="1" fold="1" page="1" pageScale="1" pageWidth="850" pageHeight="1100" math="0" shadow="0">
            <root>
                <mxCell id="0"/>
                <mxCell id="1" parent="0"/>
                <mxCell id="19" value="" style="rounded=0;whiteSpace=wrap;html=1;fontFamily=Verdana;fontSize=18;fillColor=#fff2cc;strokeColor=#d6b656;" vertex="1" parent="1">
                    <mxGeometry x="70" y="160" width="880" height="350" as="geometry"/>
                </mxCell>
                <mxCell id="2" value="Assistant&lt;br&gt;(ex: Travel agent bot)" style="rounded=1;whiteSpace=wrap;html=1;fillColor=#f5f5f5;fontColor=#333333;strokeColor=#666666;" vertex="1" parent="1">
                    <mxGeometry x="100" y="200" width="120" height="60" as="geometry"/>
                </mxCell>
                <mxCell id="3" value="" style="rounded=1;whiteSpace=wrap;html=1;fillColor=#f5f5f5;fontColor=#333333;strokeColor=#666666;" vertex="1" parent="1">
                    <mxGeometry x="280" y="200" width="270" height="280" as="geometry"/>
                </mxCell>
                <mxCell id="4" value="&lt;font style=&quot;font-size: 18px;&quot; color=&quot;#121212&quot;&gt;Thread&lt;/font&gt;" style="text;html=1;strokeColor=none;fillColor=none;align=center;verticalAlign=middle;whiteSpace=wrap;rounded=0;" vertex="1" parent="1">
                    <mxGeometry x="300" y="215" width="60" height="30" as="geometry"/>
                </mxCell>
                <mxCell id="5" value="&lt;p style=&quot;text-align: justify; line-height: 120%;&quot;&gt;&lt;font style=&quot;font-size: 10px;&quot;&gt;(Là nơi chứa tất cả các message xảy ra giữa assistant và user vì đó là toàn bộ ý tưởng mà các message đó được tracked ở đây)&lt;/font&gt;&lt;/p&gt;" style="text;html=1;strokeColor=none;fillColor=none;align=center;verticalAlign=middle;whiteSpace=wrap;rounded=0;fontSize=18;fontColor=#121212;" vertex="1" parent="1">
                    <mxGeometry x="290" y="240" width="250" height="60" as="geometry"/>
                </mxCell>
                <mxCell id="15" style="edgeStyle=none;html=1;entryX=-0.01;entryY=0.641;entryDx=0;entryDy=0;entryPerimeter=0;fontFamily=Verdana;fontSize=18;fontColor=#000000;strokeWidth=5;strokeColor=#B266FF;" edge="1" parent="1" source="6" target="8">
                    <mxGeometry relative="1" as="geometry"/>
                </mxCell>
                <mxCell id="6" value="&lt;font style=&quot;font-size: 12px;&quot; color=&quot;#000000&quot;&gt;User's mesage&lt;br&gt;(ex: What's the cost for an extra day in Paris?)&lt;br&gt;&lt;/font&gt;" style="rounded=1;whiteSpace=wrap;html=1;fontSize=10;fillColor=#dae8fc;strokeColor=#6c8ebf;" vertex="1" parent="1">
                    <mxGeometry x="290" y="310" width="250" height="60" as="geometry"/>
                </mxCell>
                <mxCell id="7" value="&lt;font style=&quot;font-size: 12px;&quot; color=&quot;#000000&quot;&gt;Assistant's message&lt;br&gt;(ex: The total cost will be $12.890)&lt;br&gt;&lt;/font&gt;" style="rounded=1;whiteSpace=wrap;html=1;fontSize=10;fillColor=#dae8fc;strokeColor=#6c8ebf;" vertex="1" parent="1">
                    <mxGeometry x="290" y="390" width="250" height="60" as="geometry"/>
                </mxCell>
                <mxCell id="18" style="edgeStyle=none;html=1;entryX=1;entryY=0.5;entryDx=0;entryDy=0;strokeColor=#B266FF;strokeWidth=5;fontFamily=Verdana;fontSize=18;fontColor=#000000;" edge="1" parent="1" source="8" target="7">
                    <mxGeometry relative="1" as="geometry"/>
                </mxCell>
                <mxCell id="8" value="" style="rounded=1;whiteSpace=wrap;html=1;fillColor=#f5f5f5;fontColor=#333333;strokeColor=#666666;" vertex="1" parent="1">
                    <mxGeometry x="640" y="200" width="270" height="280" as="geometry"/>
                </mxCell>
                <mxCell id="10" value="&lt;p style=&quot;text-align: justify; line-height: 120%;&quot;&gt;&lt;font style=&quot;font-size: 24px;&quot;&gt;Run&lt;/font&gt;&lt;/p&gt;" style="text;html=1;strokeColor=none;fillColor=none;align=center;verticalAlign=middle;whiteSpace=wrap;rounded=0;fontSize=18;fontColor=#121212;" vertex="1" parent="1">
                    <mxGeometry x="650" y="220" width="60" height="20" as="geometry"/>
                </mxCell>
                <mxCell id="11" style="edgeStyle=none;html=1;exitX=0.5;exitY=1;exitDx=0;exitDy=0;entryX=0.25;entryY=1;entryDx=0;entryDy=0;fontSize=24;fontColor=#000000;" edge="1" parent="1" source="10" target="10">
                    <mxGeometry relative="1" as="geometry"/>
                </mxCell>
                <mxCell id="12" value="&lt;p style=&quot;text-align: justify; line-height: 120%;&quot;&gt;&lt;span style=&quot;font-size: 10px;&quot;&gt;( Cách Assistant's hoạt động )&lt;/span&gt;&lt;/p&gt;" style="text;html=1;strokeColor=none;fillColor=none;align=center;verticalAlign=middle;whiteSpace=wrap;rounded=0;fontSize=18;fontColor=#121212;" vertex="1" parent="1">
                    <mxGeometry x="675" y="220" width="200" height="20" as="geometry"/>
                </mxCell>
                <mxCell id="13" value="&lt;p style=&quot;line-height: 120%;&quot;&gt;&lt;font face=&quot;Verdana&quot; style=&quot;font-size: 18px;&quot;&gt;Assistant: Travel agent bot&lt;br&gt;Thread: Trip to Paris&lt;br&gt;Steps:&lt;/font&gt;&lt;/p&gt;&lt;p style=&quot;line-height: 120%;&quot;&gt;&lt;font face=&quot;Verdana&quot; style=&quot;font-size: 18px;&quot;&gt;1. Use code interpreter&lt;br&gt;2. Create message&lt;br&gt;3. Call another tool ...&lt;/font&gt;&lt;/p&gt;" style="text;html=1;strokeColor=none;fillColor=none;align=left;verticalAlign=middle;whiteSpace=wrap;rounded=0;fontSize=18;fontColor=#121212;" vertex="1" parent="1">
                    <mxGeometry x="650" y="245" width="250" height="210" as="geometry"/>
                </mxCell>
            </root>
        </mxGraphModel>
    </diagram>
</mxfile>
